<svg width="152" height="142" viewBox="0 0 152 142" fill="none" xmlns="http://www.w3.org/2000/svg">
<g filter="url(#filter0_d)">
<path d="M26.8645 34.2427L20.9157 36.5093L36.0838 49.3825L21.851 49.2608L23.8603 56.1933L16.1991 60.0942L24.8185 63.6474L22.7006 70.3321L42.385 69.702L47.2581 75.3047L58.1877 62.8281L68.329 74.4879L71.5568 71.6805L61.5111 59.9375L73.7391 52.2724L68.912 46.6297L73.0542 26.5361L65.7099 28.0814L63.5812 19.3486L58.4606 26.099L52.8256 22.32L50.9139 36.4838L40.1359 19.7922L36.6184 26.0433L24.7431 22.2752L26.8645 34.2427Z" fill="url(#paint0_linear)"/>
</g>
<path d="M77.2806 61.6073L28.0635 88.7968C26.6621 89.571 26.6932 91.5962 28.1178 92.327L77.3365 117.575C77.9245 117.877 78.6236 117.868 79.2043 117.553L125.661 92.3056C127.03 91.5619 127.061 89.6088 125.717 88.8222L79.258 61.6318C78.6493 61.2756 77.898 61.2663 77.2806 61.6073Z" fill="#7FD8D3" stroke="black" stroke-width="2"/>
<g filter="url(#filter1_d)">
<path d="M72.7947 48.7423L27.9538 82.8068C26.7451 83.725 26.9597 85.6021 28.3444 86.2239L77.0492 108.094C77.6899 108.381 78.4346 108.312 79.0111 107.911L126.191 75.0692C127.465 74.1824 127.288 72.2454 125.873 71.6056L74.8289 48.5127C74.1601 48.2101 73.3792 48.2982 72.7947 48.7423Z" fill="#A8DEA8"/>
<path d="M72.7947 48.7423L27.9538 82.8068C26.7451 83.725 26.9597 85.6021 28.3444 86.2239L77.0492 108.094C77.6899 108.381 78.4346 108.312 79.0111 107.911L126.191 75.0692C127.465 74.1824 127.288 72.2454 125.873 71.6056L74.8289 48.5127C74.1601 48.2101 73.3792 48.2982 72.7947 48.7423Z" stroke="black" stroke-width="2"/>
</g>
<g filter="url(#filter2_d)">
<path d="M75.1325 35.3928L28.5206 76.4137C27.414 77.3875 27.7054 79.1832 29.0632 79.7572L75.912 99.5627C76.626 99.8646 77.4502 99.7266 78.027 99.2086L123.755 58.1471C124.841 57.1715 124.55 55.3984 123.208 54.8216L77.2438 35.0569C76.5342 34.7517 75.7123 34.8825 75.1325 35.3928Z" fill="#FBFFE4"/>
<path d="M75.1325 35.3928L28.5206 76.4137C27.414 77.3875 27.7054 79.1832 29.0632 79.7572L75.912 99.5627C76.626 99.8646 77.4502 99.7266 78.027 99.2086L123.755 58.1471C124.841 57.1715 124.55 55.3984 123.208 54.8216L77.2438 35.0569C76.5342 34.7517 75.7123 34.8825 75.1325 35.3928Z" stroke="black" stroke-width="2"/>
</g>
<ellipse cx="76.6706" cy="51.056" rx="7.5" ry="5" transform="rotate(-17.8272 76.6706 51.056)" fill="#7AD27A" fill-opacity="0.62"/>
<ellipse cx="79.3412" cy="72.112" rx="15" ry="10" transform="rotate(-17.8272 79.3412 72.112)" fill="#7AD27A" fill-opacity="0.62"/>
<ellipse cx="84.2697" cy="50.1879" rx="5" ry="3.5" transform="rotate(-17.8272 84.2697 50.1879)" fill="#2EC7BD" fill-opacity="0.58"/>
<ellipse cx="58.0338" cy="74.6054" rx="9.5" ry="6.5" transform="rotate(-17.8272 58.0338 74.6054)" fill="#2EC7BD" fill-opacity="0.58"/>
<defs>
<filter id="filter0_d" x="14.1991" y="17.3486" width="61.5401" height="59.9561" filterUnits="userSpaceOnUse" color-interpolation-filters="sRGB">
<feFlood flood-opacity="0" result="BackgroundImageFix"/>
<feColorMatrix in="SourceAlpha" type="matrix" values="0 0 0 0 0 0 0 0 0 0 0 0 0 0 0 0 0 0 127 0"/>
<feOffset/>
<feGaussianBlur stdDeviation="1"/>
<feColorMatrix type="matrix" values="0 0 0 0 0 0 0 0 0 0 0 0 0 0 0 0 0 0 0.25 0"/>
<feBlend mode="normal" in2="BackgroundImageFix" result="effect1_dropShadow"/>
<feBlend mode="normal" in="SourceGraphic" in2="effect1_dropShadow" result="shape"/>
</filter>
<filter id="filter1_d" x="21.6648" y="39.7868" width="110.645" height="80.7073" filterUnits="userSpaceOnUse" color-interpolation-filters="sRGB">
<feFlood flood-opacity="0" result="BackgroundImageFix"/>
<feColorMatrix in="SourceAlpha" type="matrix" values="0 0 0 0 0 0 0 0 0 0 0 0 0 0 0 0 0 0 127 0"/>
<feOffset dy="4"/>
<feColorMatrix type="matrix" values="0 0 0 0 0 0 0 0 0 0 0 0 0 0 0 0 0 0 0.25 0"/>
<feBlend mode="normal" in2="BackgroundImageFix" result="effect1_dropShadow"/>
<feBlend mode="normal" in="SourceGraphic" in2="effect1_dropShadow" result="shape"/>
</filter>
<filter id="filter2_d" x="18.4803" y="21.5759" width="115.394" height="95.717" filterUnits="userSpaceOnUse" color-interpolation-filters="sRGB">
<feFlood flood-opacity="0" result="BackgroundImageFix"/>
<feColorMatrix in="SourceAlpha" type="matrix" values="0 0 0 0 0 0 0 0 0 0 0 0 0 0 0 0 0 0 127 0"/>
<feOffset dy="4"/>
<feColorMatrix type="matrix" values="0 0 0 0 0 0 0 0 0 0 0 0 0 0 0 0 0 0 0.25 0"/>
<feBlend mode="normal" in2="BackgroundImageFix" result="effect1_dropShadow"/>
<feBlend mode="normal" in="SourceGraphic" in2="effect1_dropShadow" result="shape"/>
</filter>
<linearGradient id="paint0_linear" x1="21.8379" y1="69.7537" x2="72.0175" y2="25.3809" gradientUnits="userSpaceOnUse">
<stop stop-color="#B40C0D"/>
<stop offset="1" stop-color="#D6504E"/>
</linearGradient>
</defs>
</svg>
